<?xml version="1.0" encoding="utf-8"?>
<!-- Svg Vector Icons : http://www.onlinewebfonts.com/icon -->
<!DOCTYPE svg PUBLIC "-//W3C//DTD SVG 1.1//EN" "http://www.w3.org/Graphics/SVG/1.1/DTD/svg11.dtd">
<svg version="1.1" xmlns="http://www.w3.org/2000/svg" xmlns:xlink="http://www.w3.org/1999/xlink" x="0px" y="0px" viewBox="0 0 1000 1000" enable-background="new 0 0 1000 1000" xml:space="preserve">
<metadata> Svg Vector Icons : http://www.onlinewebfonts.com/icon </metadata>
<g><path d="M500,10c270.9,0,490,219.1,490,490c0,270.9-219.1,490-490,490l0,0l0,0l0,0C229.1,990,10,770.9,10,500C10,229.1,229.1,10,500,10L500,10L500,10L500,10z M518.8,302.1v179h176.7c-2.4-73-11.8-141.3-25.9-197.9C620.1,295.1,570.7,299.8,518.8,302.1z M518.8,264.4c47.1-2.4,96.6-7.1,141.3-18.8c-33-108.4-89.5-179-141.3-193.2V264.4z M481.2,52.4c-54.2,14.1-106,84.8-141.3,193.2c44.8,11.8,91.9,16.5,141.3,18.8V52.4z M481.2,302.1c-51.8-2.4-103.7-7.1-153.1-18.8c-14.1,56.5-23.6,124.9-25.9,197.9h179L481.2,302.1L481.2,302.1z M264.4,481.2c2.4-75.4,9.4-146.1,25.9-207.3c-49.5-14.1-96.6-35.4-139-58.9C90.1,288,54.7,379.8,50,481.2H264.4z M264.4,518.8H50C54.7,620.2,90.1,712,151.3,785.1c44.8-23.6,89.5-44.8,139-58.9C273.8,664.9,266.8,594.2,264.4,518.8z M302.1,518.8c2.4,73,11.8,141.3,25.9,197.9c49.5-11.8,101.3-18.8,153.1-21.2V518.8L302.1,518.8L302.1,518.8z M481.2,735.6c-49.5,2.4-96.6,7.1-141.3,18.8c35.4,108.4,87.2,179,141.3,193.2V735.6z M518.8,947.6c51.8-14.1,108.4-84.8,141.3-193.2c-44.8-11.8-94.2-16.5-141.3-18.8V947.6z M518.8,695.5c51.8,2.4,101.3,9.4,150.8,21.2c14.1-56.5,23.6-124.9,25.9-197.9H518.8V695.5L518.8,695.5z M735.6,518.8c-2.4,75.4-11.8,146.1-28.3,207.3c49.5,14.1,96.6,35.4,141.3,58.9c61.3-73,96.6-164.9,101.3-266.2H735.6z M735.6,481.2L735.6,481.2H950c-4.7-101.3-40.1-193.2-101.3-266.2c-44.8,23.6-89.5,44.8-139,58.9C726.2,335.1,733.2,405.8,735.6,481.2z M820.4,184.3C761.5,125.4,688.5,80.7,606,61.8c37.7,40.1,68.3,101.3,91.9,174.3C740.3,222,780.4,205.5,820.4,184.3z M394,61.8c-82.5,18.8-157.9,63.6-214.4,122.5c37.7,21.2,80.1,35.4,122.5,49.5C325.7,160.8,356.3,101.9,394,61.8z M179.6,815.7c58.9,58.9,131.9,103.7,214.4,122.5c-37.7-40.1-70.7-101.3-94.2-174.3C257.4,778,217.3,794.5,179.6,815.7z M606,938.2c82.5-18.8,155.5-63.6,214.4-122.5c-40.1-21.2-80.1-37.7-122.5-51.8C674.4,836.9,643.7,898.1,606,938.2z"/></g>
</svg>