<?xml version="1.0" standalone="no"?>
<!DOCTYPE svg PUBLIC "-//W3C//DTD SVG 20010904//EN"
 "http://www.w3.org/TR/2001/REC-SVG-20010904/DTD/svg10.dtd">
<svg version="1.0" xmlns="http://www.w3.org/2000/svg"
 width="512.000000pt" height="512.000000pt" viewBox="0 0 512.000000 512.000000"
 preserveAspectRatio="xMidYMid meet" >

<g transform="translate(0.000000,512.000000) scale(0.100000,-0.100000)"
fill="#000000" stroke="none">
<path d="M1940 5109 c-357 -37 -713 -177 -1020 -403 -114 -83 -323 -290 -407
-402 -264 -349 -405 -745 -420 -1179 -9 -259 23 -481 103 -723 100 -301 272
-578 500 -806 334 -334 756 -539 1227 -597 127 -15 451 -7 572 15 281 51 531
147 758 289 l87 56 614 -638 c337 -350 627 -649 644 -663 108 -90 294 -65 376
50 42 58 54 96 55 164 2 108 -5 117 -654 790 -324 336 -600 624 -612 639 l-23
27 54 68 c362 465 503 1076 385 1674 -59 299 -214 627 -412 873 -442 550
-1129 837 -1827 766z m410 -543 c649 -87 1163 -562 1300 -1202 28 -127 38
-382 20 -503 -49 -348 -196 -645 -436 -885 -231 -232 -518 -378 -844 -432
-109 -18 -349 -18 -466 0 -422 64 -804 309 -1039 666 -84 127 -129 220 -175
359 -51 151 -71 264 -77 434 -33 853 655 1569 1512 1576 55 0 147 -6 205 -13z"/>
</g>
</svg>
